<svg height="2318" width="720" xmlns="http://www.w3.org/2000/svg">
<rect height="2318" fill="#555" width="720"></rect>
<text fill="#7f7" font-family="Courier New" font-size="12" xml:space="preserve">
<tspan x="10" y="26"></tspan>
<tspan x="10" y="42">&gt; npmdoc-elasticsearch@0.0.2 test /home/travis/build/npmdoc/node-npmdoc-elasticsearch</tspan>
<tspan x="10" y="58">&gt; (set -e; export PORT=$(utility2 shServerPortRandom); utility2 test test.js)</tspan>
<tspan x="10" y="74"></tspan>
<tspan x="10" y="90"></tspan>
<tspan x="10" y="106">[MODE_BUILD=npmTest] - 2017-03-25T11:51:57Z - npm-testing /home/travis/build/npmdoc/node-npmdoc-\</tspan>
<tspan x="10" y="122">elasticsearch</tspan>
<tspan x="10" y="138"></tspan>
<tspan x="10" y="154"></tspan>
<tspan x="10" y="170">covering $ /home/travis/.nvm/versions/node/v7.7.4/bin/node /home/travis/build/npmdoc/node-npmdoc\</tspan>
<tspan x="10" y="186">-elasticsearch/test.js</tspan>
<tspan x="10" y="202">merging file:///home/travis/build/npmdoc/node-npmdoc-elasticsearch/tmp/build/test-report.json to\</tspan>
<tspan x="10" y="218"> test-report</tspan>
<tspan x="10" y="234">&gt; server listening on http-port 34336</tspan>
<tspan x="10" y="250">created apidoc file:///home/travis/build/npmdoc/node-npmdoc-elasticsearch/tmp/build/apidoc.html</tspan>
<tspan x="10" y="266"></tspan>
<tspan x="10" y="282"></tspan>
<tspan x="10" y="298">browserTest - created electron entry-page /home/travis/build/npmdoc/node-npmdoc-elasticsearch/tm\</tspan>
<tspan x="10" y="314">p/electron.15b054f0e470.73de7212920e2.html</tspan>
<tspan x="10" y="330"></tspan>
<tspan x="10" y="346">Xlib:  extension "RANDR" missing on display ":99.0".</tspan>
<tspan x="10" y="362">[node test-case 1 of 6 passed] - testCase_buildLib_default</tspan>
<tspan x="10" y="378">[node test-case 2 of 6 passed] - testCase_buildReadme_default</tspan>
<tspan x="10" y="394">[node test-case 3 of 6 passed] - testCase_buildTest_default</tspan>
<tspan x="10" y="410"></tspan>
<tspan x="10" y="426">browserTest - created electron entry-page /home/travis/build/npmdoc/node-npmdoc-elasticsearch/tm\</tspan>
<tspan x="10" y="442">p/electron.15b054f0f110.26c90b4d6a06d.html</tspan>
<tspan x="10" y="458"></tspan>
<tspan x="10" y="474">(node:4961) DeprecationWarning: node --debug is deprecated. Please use node --inspect instead.</tspan>
<tspan x="10" y="490">Xlib:  extension "RANDR" missing on display ":99.0".</tspan>
<tspan x="10" y="506">&gt; server listening on http-port 49874</tspan>
<tspan x="10" y="522"></tspan>
<tspan x="10" y="538">/home/travis/build/npmdoc/node-npmdoc-elasticsearch/node_modules/utility2/lib.utility2.sh.html.j\</tspan>
<tspan x="10" y="554">s</tspan>
<tspan x="10" y="570"> #1 Line too long.</tspan>
<tspan x="10" y="586">    process.stdout.write('export npm_package_' + key.replace((/\W/g), '_') + '=' + JSON.stringif\</tspan>
<tspan x="10" y="602">y(value) + ';'); // Line 1445, Pos 116</tspan>
<tspan x="10" y="618"></tspan>
<tspan x="10" y="634">merging file:///home/travis/build/npmdoc/node-npmdoc-elasticsearch/tmp/build/test-report.json to\</tspan>
<tspan x="10" y="650"> test-report</tspan>
<tspan x="10" y="666">Xlib:  extension "RANDR" missing on display ":99.0".</tspan>
<tspan x="10" y="682">[4975:0325/115159:WARNING:audio_manager.cc(314)] Multiple instances of AudioManager detected</tspan>
<tspan x="10" y="698">[4975:0325/115159:WARNING:audio_manager.cc(275)] Multiple instances of AudioManager detected</tspan>
<tspan x="10" y="714">[5019:0325/115159:ERROR:sandbox_linux.cc(343)] InitializeSandbox() called with multiple threads \</tspan>
<tspan x="10" y="730">in process gpu-process. </tspan>
<tspan x="10" y="746"></tspan>
<tspan x="10" y="762">/home/travis/build/npmdoc/node-npmdoc-elasticsearch/node_modules/utility2/lib.utility2.sh.html.j\</tspan>
<tspan x="10" y="778">s</tspan>
<tspan x="10" y="794"> #1 Line too long.</tspan>
<tspan x="10" y="810">    process.stdout.write('export npm_package_' + key.replace((/\W/g), '_') + '=' + JSON.stringif\</tspan>
<tspan x="10" y="826">y(value) + ';'); // Line 1445, Pos 116</tspan>
<tspan x="10" y="842"></tspan>
<tspan x="10" y="858">[4975:0325/115200:ERROR:browser_gpu_channel_host_factory.cc(131)] Failed to create channel.</tspan>
<tspan x="10" y="874">merging file:///home/travis/build/npmdoc/node-npmdoc-elasticsearch/tmp/build/test-report.json to\</tspan>
<tspan x="10" y="890"> test-report</tspan>
<tspan x="10" y="906">Xlib:  extension "RANDR" missing on display ":99.0".</tspan>
<tspan x="10" y="922">[4997:0325/115200:WARNING:audio_manager.cc(314)] Multiple instances of AudioManager detected</tspan>
<tspan x="10" y="938">[4997:0325/115200:WARNING:audio_manager.cc(275)] Multiple instances of AudioManager detected</tspan>
<tspan x="10" y="954">[5049:0325/115200:ERROR:sandbox_linux.cc(343)] InitializeSandbox() called with multiple threads \</tspan>
<tspan x="10" y="970">in process gpu-process. </tspan>
<tspan x="10" y="986">[4997:0325/115200:ERROR:browser_gpu_channel_host_factory.cc(131)] Failed to create channel.</tspan>
<tspan x="10" y="1002"></tspan>
<tspan x="10" y="1018">browserTest - opened url file:///home/travis/build/npmdoc/node-npmdoc-elasticsearch/tmp/build/ap\</tspan>
<tspan x="10" y="1034">idoc.html</tspan>
<tspan x="10" y="1050"></tspan>
<tspan x="10" y="1066"></tspan>
<tspan x="10" y="1082">browserTest - opened url http://127.0.0.1:34336?modeTest=1</tspan>
<tspan x="10" y="1098"></tspan>
<tspan x="10" y="1114">[4997:0325/115202:INFO:CONSOLE(203)] "----------|-----------|-----------|-----------|-----------\</tspan>
<tspan x="10" y="1130">|</tspan>
<tspan x="10" y="1146">File      |   % Stmts |% Branches |   % Funcs |   % Lines |</tspan>
<tspan x="10" y="1162">----------|-----------|-----------|-----------|-----------|</tspan>
<tspan x="10" y="1178">----------|-----------|-----------|-----------|-----------|</tspan>
<tspan x="10" y="1194">All files |       100 |       100 |       100 |       100 |</tspan>
<tspan x="10" y="1210">----------|-----------|-----------|-----------|-----------|</tspan>
<tspan x="10" y="1226">", source: file:///home/travis/build/npmdoc/node-npmdoc-elasticsearch/tmp/electron.15b054f0f110.\</tspan>
<tspan x="10" y="1242">26c90b4d6a06d.html (203)</tspan>
<tspan x="10" y="1258">[4997:0325/115202:INFO:CONSOLE(203)] "created coverage file:///tmp/build/coverage.html/index.htm\</tspan>
<tspan x="10" y="1274">l", source: file:///home/travis/build/npmdoc/node-npmdoc-elasticsearch/tmp/electron.15b054f0f110\</tspan>
<tspan x="10" y="1290">.26c90b4d6a06d.html (203)</tspan>
<tspan x="10" y="1306">[node test-case 4 of 6 passed] - testCase_buildApp_default</tspan>
<tspan x="10" y="1322"></tspan>
<tspan x="10" y="1338">browserTest - created screen-capture file:///home/travis/build/npmdoc/node-npmdoc-elasticsearch/\</tspan>
<tspan x="10" y="1354">tmp/build/screen-capture.npmTest.browser._2Fhome_2Ftravis_2Fbuild_2Fnpmdoc_2Fnode-npmdoc-elastic\</tspan>
<tspan x="10" y="1370">search_2Ftmp_2Fbuild_2Fapidoc.html.png</tspan>
<tspan x="10" y="1386"></tspan>
<tspan x="10" y="1402"></tspan>
<tspan x="10" y="1418">browserTest - exit-code 0 - file:///home/travis/build/npmdoc/node-npmdoc-elasticsearch/tmp/build\</tspan>
<tspan x="10" y="1434">/apidoc.html</tspan>
<tspan x="10" y="1450"></tspan>
<tspan x="10" y="1466">[node test-case 5 of 6 passed] - testCase_buildApidoc_default</tspan>
<tspan x="10" y="1482"></tspan>
<tspan x="10" y="1498">browserTest - created screen-capture file:///home/travis/build/npmdoc/node-npmdoc-elasticsearch/\</tspan>
<tspan x="10" y="1514">tmp/build/screen-capture.npmTest.browser..png</tspan>
<tspan x="10" y="1530"></tspan>
<tspan x="10" y="1546"></tspan>
<tspan x="10" y="1562">browserTest - exit-code 0 - http://127.0.0.1:34336?modeTest=1</tspan>
<tspan x="10" y="1578"></tspan>
<tspan x="10" y="1594"></tspan>
<tspan x="10" y="1610">browserTest - merged coverage from /home/travis/build/npmdoc/node-npmdoc-elasticsearch/tmp/cover\</tspan>
<tspan x="10" y="1626">age.npmTest.browser.%2F.json</tspan>
<tspan x="10" y="1642"></tspan>
<tspan x="10" y="1658"></tspan>
<tspan x="10" y="1674">browserTest - merging test-report from /home/travis/build/npmdoc/node-npmdoc-elasticsearch/tmp/t\</tspan>
<tspan x="10" y="1690">est-report.npmTest.browser.%2F.json</tspan>
<tspan x="10" y="1706"></tspan>
<tspan x="10" y="1722">[node test-case 6 of 6 passed] - testCase_webpage_default</tspan>
<tspan x="10" y="1738">----------------------------------|-----------|-----------|-----------|-----------|</tspan>
<tspan x="10" y="1754">File                              |   % Stmts |% Branches |   % Funcs |   % Lines |</tspan>
<tspan x="10" y="1770">----------------------------------|-----------|-----------|-----------|-----------|</tspan>
<tspan x="10" y="1786">   node-npmdoc-elasticsearch/     |       100 |       100 |       100 |       100 |</tspan>
<tspan x="10" y="1802">      example.js                  |       100 |       100 |       100 |       100 |</tspan>
<tspan x="10" y="1818">      lib.npmdoc_elasticsearch.js |       100 |       100 |       100 |       100 |</tspan>
<tspan x="10" y="1834">      test.js                     |       100 |       100 |       100 |       100 |</tspan>
<tspan x="10" y="1850">----------------------------------|-----------|-----------|-----------|-----------|</tspan>
<tspan x="10" y="1866">All files                         |       100 |       100 |       100 |       100 |</tspan>
<tspan x="10" y="1882">----------------------------------|-----------|-----------|-----------|-----------|</tspan>
<tspan x="10" y="1898"></tspan>
<tspan x="10" y="1914">created coverage file:///home/travis/build/npmdoc/node-npmdoc-elasticsearch/tmp/build/coverage.h\</tspan>
<tspan x="10" y="1930">tml/index.html</tspan>
<tspan x="10" y="1946"></tspan>
<tspan x="10" y="1962">/home/travis/build/npmdoc/node-npmdoc-elasticsearch/node_modules/utility2/lib.utility2.sh.html.j\</tspan>
<tspan x="10" y="1978">s</tspan>
<tspan x="10" y="1994"> #1 Line too long.</tspan>
<tspan x="10" y="2010">    process.stdout.write('export npm_package_' + key.replace((/\W/g), '_') + '=' + JSON.stringif\</tspan>
<tspan x="10" y="2026">y(value) + ';'); // Line 1445, Pos 116</tspan>
<tspan x="10" y="2042"></tspan>
<tspan x="10" y="2058">merging file:///home/travis/build/npmdoc/node-npmdoc-elasticsearch/tmp/build/test-report.json to\</tspan>
<tspan x="10" y="2074"> test-report</tspan>
<tspan x="10" y="2090"></tspan>
<tspan x="10" y="2106">-------------------------------------------------------</tspan>
<tspan x="10" y="2122">| test-report - buildNpmdoc - node - linux v7.7.4 - 2017-03-25T11:51:47.829Z</tspan>
<tspan x="10" y="2138">|   16617 ms            0 failed        6 passed      |</tspan>
<tspan x="10" y="2154">-------------------------------------------------------</tspan>
<tspan x="10" y="2170"></tspan>
<tspan x="10" y="2186">created test-report file:///home/travis/build/npmdoc/node-npmdoc-elasticsearch/tmp/build/test-re\</tspan>
<tspan x="10" y="2202">port.html</tspan>
<tspan x="10" y="2218"></tspan>
<tspan x="10" y="2234"></tspan>
<tspan x="10" y="2250">npmTest - 0 failed tests</tspan>
<tspan x="10" y="2266"></tspan>
<tspan x="10" y="2282"></tspan>
<tspan x="10" y="2298">[MODE_BUILD=npmTest] - 2017-03-25T11:52:07Z - EXIT_CODE - 0</tspan>
</text>
</svg>
